<!-- icon666.com - MILLIONS vector ICONS FREE --><svg id="Layer_1" enable-background="new 0 0 512 512" viewBox="0 0 512 512" xmlns="http://www.w3.org/2000/svg"><g><g><path d="m305.662 0h-112.773c-4.143 0-7.5 3.357-7.5 7.5s3.357 7.5 7.5 7.5h112.773c50.64 0 91.838 41.228 91.838 91.902v62.475c0 4.143 3.357 7.5 7.5 7.5s7.5-3.357 7.5-7.5v-62.475c0-58.946-47.928-106.902-106.838-106.902z" fill="#000000" style="fill: rgb(0, 128, 255);"></path><path d="m405 197.598c-4.143 0-7.5 3.357-7.5 7.5v13.629c0 9.311-8.238 24.74-15.462 28.962-3.004 1.754-4.801 5.001-4.688 8.476.11 3.438 2.087 6.528 5.161 8.065 7.721 3.86 14.989 19.635 14.989 29.044v61.478c-22.005-2.629-41.975-6.844-59.499-12.575v-20.902c0-19.575-15.925-35.5-35.5-35.5h-44.327c-10.985-17.292-16.9-37.282-17.631-59.547h61.958c19.575 0 35.5-15.925 35.5-35.5v-78.852c0-20.582-16.726-37.327-37.283-37.327h-156.445c-16.417 0-29.773-13.356-29.773-29.774 0-16.419 13.356-29.775 29.773-29.775h12.336c4.143 0 7.5-3.357 7.5-7.5s-3.357-7.5-7.5-7.5h-12.336c-24.688 0-44.773 20.086-44.773 44.774s20.085 44.773 44.773 44.773h156.444c12.287 0 22.283 10.016 22.283 22.327v78.852c0 11.304-9.196 20.5-20.5 20.5h-119.542c-24.688 0-44.773 20.085-44.773 44.773s20.085 44.773 44.773 44.773h119.543c11.304 0 20.5 9.196 20.5 20.5v78.852c0 12.311-9.996 22.325-22.283 22.325h-38.248c-4.143 0-7.5 3.357-7.5 7.5s3.357 7.5 7.5 7.5h38.248c20.558 0 37.283-16.744 37.283-37.325v-42.222c17.786 5.439 37.735 9.447 59.499 11.953v35.241c0 50.675-41.198 91.902-91.838 91.902h-161.389c-16.417 0-29.773-13.356-29.773-29.776 0-16.417 13.356-29.773 29.773-29.773h82.661c4.143 0 7.5-3.357 7.5-7.5s-3.357-7.5-7.5-7.5h-82.661c-24.688 0-44.773 20.085-44.773 44.776 0 24.688 20.085 44.773 44.773 44.773h161.389c58.91 0 106.838-47.956 106.838-106.902v-111.823c0-6.894-2.349-15.687-6.283-23.522-2.884-5.741-6.387-10.559-10.222-14.13 9.662-9.602 16.505-25.98 16.505-36.895v-13.629c0-4.142-3.357-7.499-7.5-7.499zm-251.815 58.402c0-16.417 13.356-29.773 29.773-29.773h42.585c.677 21.579 5.898 41.844 15.303 59.547h-57.888c-16.417-.001-29.773-13.357-29.773-29.774z" fill="#000000" style="fill: rgb(0, 128, 255);"></path></g></g></svg>