<!-- icon666.com - MILLIONS vector ICONS FREE --><svg id="Layer_1" enable-background="new 0 0 512 512" viewBox="0 0 512 512" xmlns="http://www.w3.org/2000/svg"><g><g><path d="m397.459 150.313c0 48.001-25.811 92.842-67.36 117.023-3.58 2.084-4.793 6.675-2.71 10.255 1.394 2.394 3.906 3.729 6.489 3.729 1.281 0 2.579-.328 3.766-1.019 22.345-13.005 41.08-31.658 54.18-53.944 13.5-22.967 20.636-49.263 20.636-76.045 0-24.006-5.494-46.948-16.329-68.189-1.882-3.69-6.398-5.154-10.089-3.272-3.689 1.882-5.155 6.398-3.272 10.089 9.747 19.109 14.689 39.758 14.689 61.373z" fill="#000000" style="fill: rgb(0, 128, 255);"></path><path d="m367.783 422.478-173.038-.231c-3.067-.004-5.563-2.5-5.563-5.564v-68.289c0-26.34 21.438-47.769 47.79-47.769h25.119c14.186 0 28.226-1.974 41.732-5.866 3.98-1.147 6.276-5.304 5.13-9.284-1.147-3.979-5.301-6.272-9.284-5.13-12.155 3.504-24.799 5.28-37.578 5.28h-25.119c-14.849 0-28.501 5.19-39.262 13.837-16.55-10.607-32.719-22.808-48.193-36.379 22.257-22.791 53.306-36.966 87.609-36.966h22.491c41.813 0 75.83-34.005 75.83-75.803s-34.018-75.804-75.83-75.804h-35.403c-26.303 0-47.701 21.392-47.701 47.686 0 17.006-13.842 30.841-30.855 30.841h-.302c-17.014 0-30.855-13.835-30.855-30.841v-1.53c-.001-58.266 47.42-105.666 105.707-105.666h41.884c39.17 0 76.398 16.952 102.141 46.509 2.719 3.124 7.456 3.451 10.581.729 3.124-2.72 3.45-7.457.729-10.581-28.591-32.829-69.942-51.657-113.451-51.657h-41.884c-66.559 0-120.708 54.13-120.708 120.664v1.53c0 25.276 20.57 45.841 45.855 45.841h.302c25.285 0 45.855-20.564 45.855-45.841 0-18.022 14.67-32.686 32.701-32.686h35.403c33.542 0 60.83 27.276 60.83 60.804 0 33.526-27.288 60.803-60.83 60.803h-22.491c-75.808 0-137.482 61.651-137.482 137.432v75.08c0 48.581 39.538 88.145 88.136 88.193l26.73.026h.008c4.139 0 7.496-3.353 7.5-7.492.004-4.143-3.351-7.504-7.492-7.508l-26.73-.026c-40.336-.041-73.151-32.875-73.151-73.193v-75.08c0-27.837 9.349-53.528 25.064-74.117 15.205 13.328 31.066 25.4 47.31 35.994-8.045 10.551-12.835 23.709-12.835 37.969v68.289c0 11.324 9.216 20.549 20.543 20.564l173.038.231c16.396.021 29.736 13.372 29.736 29.761 0 7.955-3.101 15.432-8.73 21.054-5.624 5.616-13.097 8.708-21.045 8.708h-.03l-118.564-.118h-.008c-4.139 0-7.496 3.354-7.5 7.492-.004 4.143 3.351 7.504 7.492 7.508l118.564.118h.047c11.949 0 23.188-4.649 31.643-13.094 8.469-8.456 13.132-19.703 13.132-31.668-.001-24.648-20.061-44.727-44.718-44.76z" fill="#000000" style="fill: rgb(0, 128, 255);"></path></g></g></svg>