<!-- icon666.com - MILLIONS vector ICONS FREE --><svg id="Layer_1" enable-background="new 0 0 100 100" viewBox="0 0 100 100" xmlns="http://www.w3.org/2000/svg"><path d="m64.9862061 45.7827148-3.821167-15.7573242h7.2050781c.0908203.0273438.1865234.0410156.2832031.0410156 1.8320312 0 3.3232422 1.4912109 3.3232422 3.3232422s-1.4912109 3.3222656-3.3232422 3.3222656c-.5527344 0-1 .4472656-1 1s.4472656 1 1 1c2.9355469 0 5.3232422-2.3876953 5.3232422-5.3222656 0-2.8427734-2.2392578-5.171875-5.046875-5.3164062-.0976562-.03125-.2011719-.0478516-.3066406-.0478516h-8.7294922c-.3066406 0-.5966797.140625-.7861328.3818359s-.2578125.5556641-.1855469.8535156l1.8067627 7.4511719h-18.746521l-2.7702637-7.9609375h3.3486938c.5527344 0 1-.4472656 1-1s-.4472656-1-1-1h-9.1923828c-.5527344 0-1 .4472656-1 1s.4472656 1 1 1h3.7260132l3.0804443 8.852417-4.8986206 8.3057861c-1.6213989-.7894287-3.43396-1.2451172-5.3551025-1.2451172-6.7783203 0-12.2929688 5.5146484-12.2929688 12.2929688 0 6.7773438 5.5146484 12.2919922 12.2929688 12.2919922 5.8328857 0 10.7203979-4.0887451 11.9721069-9.5476074l1.9750977.2861328c.196167 2.5776367 2.3329468 4.6218262 4.960022 4.6218262 2.7568359 0 4.9990234-2.2421875 4.9990234-4.9980469 0-1.574585-.7459717-2.9641113-1.8869629-3.8811035l9.9414673-14.2634277 1.2919312 5.3278809c-3.24823 2.2148438-5.3864746 5.9428711-5.3864746 10.1623535 0 6.7773438 5.5146484 12.2919922 12.2919922 12.2919922 6.7783203 0 12.2929688-5.5146484 12.2929688-12.2919922 0-6.7783203-5.5146484-12.2929688-12.2929688-12.2929688-1.8178101 0-3.5388184.4072266-5.0928955 1.1186523zm-35.0653077 21.4663086c-5.6757812 0-10.2929688-4.6171875-10.2929688-10.2919922 0-5.6757812 4.6171875-10.2929688 10.2929688-10.2929688 1.5506592 0 3.0167847.3547363 4.336853.9715576l-5.1882324 8.796753c-.0026855.0043945-.005127.0085449-.0076904.0129395l-.0022583.0039062c-.0227661.0385742-.0252075.0817871-.0422363.1219482-.0332642.0786133-.0731201.1541748-.0856934.2423096-.0002441.0014648.0004883.0029297.0002441.0045166-.0183716.1312256-.0112915.2637939.0214844.3900146.0161133.0623779.0542603.1140137.081665.1713867.0279541.0588379.0449829.1220703.0842896.1750488.0777588.1043701.1762695.192627.289917.260498.0015259.0008545.0023193.0024414.0038452.003418.104187.0612793.2155151.0944824.328186.1149902.0130005.0024414.0228882.0109863.0360718.0129395l10.1268921 1.467041c-1.105957 4.4906008-5.156311 7.8356935-9.9833374 7.8356935zm10.2678223-9.8146972-8.6495361-1.2529297 4.4394531-7.5270996c2.5609131 1.8741455 4.2342529 4.8930664 4.2342529 8.3027344 0 .1611328-.0167846.3179931-.0241699.4772949zm-3.1895142-10.5102539 4.0370483-6.8447266 5.2981567 15.2253418c-1.0327148.6008301-1.8226318 1.552002-2.2155762 2.6989746l-1.9447021-.2817383c.0157471-.2541504.0387573-.5067139.0387573-.7648926.0000001-4.1420898-2.0653685-7.8046874-5.213684-10.0329589zm11.8289185 15.6853027c-1.6533203 0-2.9980469-1.3447266-2.9980469-2.9980469s1.3447266-2.9990234 2.9980469-2.9990234 2.9990234 1.3457031 2.9990234 2.9990234-1.3457031 2.9980469-2.9990234 2.9980469zm1.3150635-7.7993164c-.4217529-.1159668-.8569946-.1977539-1.3150635-.1977539-.2041016 0-.3982544.036377-.5960083.0603027l-5.5540161-15.9606934h18.5355224l.0386963.1594238zm30.2288818 2.1469726c0 5.6748047-4.6171875 10.2919922-10.2929688 10.2919922-5.6748047 0-10.2919922-4.6171875-10.2919922-10.2919922 0-3.4083252 1.671936-6.4260254 4.2310791-8.300293l5.5697021 8.8334961c.1904297.3017578.5146484.4667969.8466797.4667969.1826172 0 .3671875-.0498047.5322266-.1542969.4677734-.2939453.6074219-.9121094.3125-1.3789062l-5.539856-8.7868652c1.3208008-.6176758 2.7879028-.9729004 4.3396606-.9729004 5.6757814 0 10.2929689 4.6171875 10.2929689 10.2929687z" fill="#000000" style="fill: rgb(255, 255, 255);"></path><path d="m50 10c-22.0556641 0-40 17.9443359-40 40s17.9443359 40 40 40 40-17.9443359 40-40-17.9443359-40-40-40zm0 78c-20.953125 0-38-17.046875-38-38s17.046875-38 38-38 38 17.046875 38 38-17.046875 38-38 38z" fill="#000000" style="fill: rgb(255, 255, 255);"></path></svg>